<svg xmlns="http://www.w3.org/2000/svg" xmlns:xlink="http://www.w3.org/1999/xlink" x="0px" y="0px" viewBox="0 0 38 38" style="enable-background:new 0 0 38 38;" xml:space="preserve">
        <circle fill="#2dd68a" stroke="#ffffff" cx="19" cy="19" r="18"/>
        <path fill="#231f20" d="M12.8,21.6c-0.1,0-0.2,0.1-0.2,0.2c0.1,4.3,2.9,7.8,6.4,7.8s6.3-3.5,6.4-7.8c0-0.1-0.1-0.2-0.2-0.2 C25.2,21.6,12.8,21.6,12.8,21.6z M15.6,17.9c-0.2,0-0.4-0.2-0.5-0.4c-0.1-0.9-1-1.6-1.9-1.5c-0.9,0-1.7,0.6-1.9,1.5 c-0.1,0.3-0.3,0.4-0.6,0.4c-0.3-0.1-0.4-0.3-0.4-0.6l0,0c0.3-1.3,1.5-2.2,2.9-2.3s2.6,0.9,2.9,2.2c0.1,0.3-0.1,0.5-0.3,0.6l0,0 C15.7,17.9,15.6,17.9,15.6,17.9z M27.3,17.9c-0.2,0-0.4-0.2-0.5-0.4c-0.1-0.9-1-1.6-1.9-1.5c-0.9,0-1.7,0.6-1.9,1.5 c-0.1,0.3-0.3,0.4-0.6,0.4c-0.3-0.1-0.4-0.3-0.4-0.6c0.3-1.3,1.5-2.2,2.9-2.3s2.6,0.9,2.9,2.2c0.1,0.3-0.1,0.5-0.3,0.6l0,0 C27.3,17.9,27.3,17.9,27.3,17.9z"/>
</svg>        