<svg width="211" height="40" viewBox="0 0 211 40" fill="none" xmlns="http://www.w3.org/2000/svg">
<path fill-rule="evenodd" clip-rule="evenodd" d="M7.5 10C7.5 8.61929 8.61929 7.5 10 7.5H13.75C15.1307 7.5 16.25 8.61929 16.25 10V30C16.25 31.3807 15.1307 32.5 13.75 32.5H10C8.61929 32.5 7.5 31.3807 7.5 30V10ZM13.75 10H10V30H13.75V10Z" fill="#00B37E"/>
<path fill-rule="evenodd" clip-rule="evenodd" d="M23.75 10C23.75 8.61929 24.8693 7.5 26.25 7.5H30C31.3807 7.5 32.5 8.61929 32.5 10V30C32.5 31.3807 31.3807 32.5 30 32.5H26.25C24.8693 32.5 23.75 31.3807 23.75 30V10ZM30 10H26.25V30H30V10Z" fill="#00B37E"/>
<path fill-rule="evenodd" clip-rule="evenodd" d="M30 12.5C30 11.8096 30.5596 11.25 31.25 11.25H35C35.663 11.25 36.2989 11.5134 36.7678 11.9822C37.2366 12.4511 37.5 13.087 37.5 13.75V26.25C37.5 26.913 37.2366 27.5489 36.7678 28.0178C36.2989 28.4866 35.663 28.75 35 28.75H31.25C30.5596 28.75 30 28.1904 30 27.5C30 26.8096 30.5596 26.25 31.25 26.25H35L35 13.75L31.25 13.75C30.5596 13.75 30 13.1904 30 12.5Z" fill="#00B37E"/>
<path fill-rule="evenodd" clip-rule="evenodd" d="M3.23223 11.9822C3.70107 11.5134 4.33696 11.25 5 11.25H8.75C9.44036 11.25 10 11.8096 10 12.5C10 13.1904 9.44036 13.75 8.75 13.75L5 13.75V26.25H8.75C9.44036 26.25 10 26.8096 10 27.5C10 28.1904 9.44036 28.75 8.75 28.75H5C4.33696 28.75 3.70108 28.4866 3.23223 28.0178C2.76339 27.5489 2.5 26.913 2.5 26.25V13.75C2.5 13.087 2.76339 12.4511 3.23223 11.9822Z" fill="#00B37E"/>
<path fill-rule="evenodd" clip-rule="evenodd" d="M13.75 20C13.75 19.3096 14.3096 18.75 15 18.75H25C25.6904 18.75 26.25 19.3096 26.25 20C26.25 20.6904 25.6904 21.25 25 21.25H15C14.3096 21.25 13.75 20.6904 13.75 20Z" fill="#00B37E"/>
<path fill-rule="evenodd" clip-rule="evenodd" d="M35 20C35 19.3096 35.5596 18.75 36.25 18.75H38.75C39.4404 18.75 40 19.3096 40 20C40 20.6904 39.4404 21.25 38.75 21.25H36.25C35.5596 21.25 35 20.6904 35 20Z" fill="#00B37E"/>
<path fill-rule="evenodd" clip-rule="evenodd" d="M0 20C0 19.3096 0.559644 18.75 1.25 18.75H3.75C4.44036 18.75 5 19.3096 5 20C5 20.6904 4.44036 21.25 3.75 21.25H1.25C0.559644 21.25 0 20.6904 0 20Z" fill="#00B37E"/>
<path d="M55.2045 5.92H59.5545V28H55.2045V5.92ZM71.3433 34.6C70.1633 34.6 69.1633 34.46 68.3433 34.18C67.5433 33.9 66.8633 33.56 66.3033 33.16C65.7433 32.76 65.2433 32.38 64.8033 32.02L67.2633 29.14C67.7233 29.56 68.2533 29.96 68.8533 30.34C69.4733 30.74 70.2833 30.94 71.2833 30.94C71.9433 30.94 72.5533 30.82 73.1133 30.58C73.6933 30.36 74.1533 30.03 74.4933 29.59C74.8533 29.15 75.0333 28.6 75.0333 27.94V25.06L75.1833 25.81C74.8633 26.49 74.2833 27.09 73.4433 27.61C72.6033 28.11 71.5033 28.36 70.1433 28.36C68.9633 28.36 67.8633 28.06 66.8433 27.46C65.8433 26.84 65.0433 26.01 64.4433 24.97C63.8433 23.91 63.5433 22.71 63.5433 21.37C63.5433 19.99 63.8633 18.77 64.5033 17.71C65.1433 16.63 65.9733 15.78 66.9933 15.16C68.0133 14.54 69.0933 14.23 70.2333 14.23C71.3733 14.23 72.3533 14.4 73.1733 14.74C74.0133 15.06 74.6433 15.46 75.0633 15.94L74.9133 16.33L75.3633 14.89H79.2333V28C79.2333 29.28 78.8733 30.41 78.1533 31.39C77.4333 32.39 76.4733 33.17 75.2733 33.73C74.0933 34.31 72.7833 34.6 71.3433 34.6ZM67.7733 21.25C67.7733 21.95 67.9333 22.58 68.2533 23.14C68.5733 23.7 69.0033 24.14 69.5433 24.46C70.1033 24.78 70.7233 24.94 71.4033 24.94C71.9833 24.94 72.4933 24.87 72.9333 24.73C73.3933 24.57 73.7933 24.35 74.1333 24.07C74.4933 23.77 74.7933 23.4 75.0333 22.96V19.75C74.8533 19.31 74.5833 18.94 74.2233 18.64C73.8633 18.32 73.4433 18.08 72.9633 17.92C72.5033 17.74 71.9833 17.65 71.4033 17.65C70.7233 17.65 70.1033 17.81 69.5433 18.13C69.0033 18.43 68.5733 18.85 68.2533 19.39C67.9333 19.93 67.7733 20.55 67.7733 21.25ZM87.3577 14.89L87.6877 17.23L87.6277 17.02C88.0877 16.2 88.7377 15.54 89.5777 15.04C90.4177 14.52 91.4477 14.26 92.6677 14.26C93.9077 14.26 94.9377 14.63 95.7577 15.37C96.5977 16.09 97.0277 17.03 97.0477 18.19V28H92.8477V19.75C92.8277 19.17 92.6677 18.71 92.3677 18.37C92.0877 18.01 91.6077 17.83 90.9277 17.83C90.2877 17.83 89.7277 18.04 89.2477 18.46C88.7677 18.88 88.3977 19.45 88.1377 20.17C87.8777 20.89 87.7477 21.72 87.7477 22.66V28H83.5477V14.89H87.3577ZM101.36 14.89H105.56V28H101.36V14.89ZM101.27 10.24C101.27 9.62 101.51 9.11 101.99 8.71C102.49 8.31 103.02 8.11 103.58 8.11C104.14 8.11 104.65 8.31 105.11 8.71C105.59 9.11 105.83 9.62 105.83 10.24C105.83 10.86 105.59 11.37 105.11 11.77C104.65 12.15 104.14 12.34 103.58 12.34C103.02 12.34 102.49 12.15 101.99 11.77C101.51 11.37 101.27 10.86 101.27 10.24ZM111.116 9.13H115.316V14.83H118.496V18.1H115.316V28H111.116V18.1H109.076V14.83H111.116V9.13ZM128.142 28.36C126.542 28.36 125.182 28.06 124.062 27.46C122.962 26.86 122.122 26.03 121.542 24.97C120.962 23.91 120.672 22.69 120.672 21.31C120.672 19.99 121.012 18.8 121.692 17.74C122.372 16.68 123.282 15.84 124.422 15.22C125.562 14.58 126.832 14.26 128.232 14.26C130.112 14.26 131.652 14.81 132.852 15.91C134.072 16.99 134.862 18.56 135.222 20.62L125.022 23.86L124.092 21.58L131.472 19.09L130.602 19.48C130.442 18.96 130.152 18.51 129.732 18.13C129.332 17.73 128.722 17.53 127.902 17.53C127.282 17.53 126.732 17.68 126.252 17.98C125.792 18.26 125.432 18.67 125.172 19.21C124.932 19.73 124.812 20.35 124.812 21.07C124.812 21.89 124.962 22.58 125.262 23.14C125.562 23.68 125.972 24.09 126.492 24.37C127.012 24.65 127.592 24.79 128.232 24.79C128.692 24.79 129.132 24.71 129.552 24.55C129.992 24.39 130.422 24.18 130.842 23.92L132.702 27.04C132.002 27.44 131.242 27.76 130.422 28C129.622 28.24 128.862 28.36 128.142 28.36ZM166.63 25.78C166.37 26.06 165.96 26.35 165.4 26.65C164.84 26.93 164.19 27.19 163.45 27.43C162.73 27.67 161.99 27.86 161.23 28C160.47 28.16 159.75 28.24 159.07 28.24C157.27 28.24 155.65 27.98 154.21 27.46C152.77 26.92 151.54 26.18 150.52 25.24C149.5 24.28 148.72 23.15 148.18 21.85C147.64 20.55 147.37 19.13 147.37 17.59C147.37 15.57 147.67 13.82 148.27 12.34C148.89 10.84 149.72 9.6 150.76 8.62C151.82 7.62 153.03 6.88 154.39 6.4C155.77 5.92 157.21 5.68 158.71 5.68C160.13 5.68 161.43 5.84 162.61 6.16C163.79 6.46 164.79 6.84 165.61 7.3L164.2 11.35C163.84 11.15 163.36 10.95 162.76 10.75C162.16 10.55 161.55 10.39 160.93 10.27C160.31 10.13 159.76 10.06 159.28 10.06C158.08 10.06 157.02 10.21 156.1 10.51C155.18 10.81 154.4 11.26 153.76 11.86C153.14 12.46 152.67 13.21 152.35 14.11C152.03 14.99 151.87 16.02 151.87 17.2C151.87 18.24 152.05 19.18 152.41 20.02C152.77 20.84 153.27 21.54 153.91 22.12C154.57 22.7 155.34 23.14 156.22 23.44C157.12 23.74 158.11 23.89 159.19 23.89C159.81 23.89 160.38 23.85 160.9 23.77C161.42 23.67 161.86 23.52 162.22 23.32V20.65H158.41V16.45H166.63V25.78ZM171.932 34.3L180.662 14.89H184.442L175.982 34.3H171.932ZM175.442 28.06L169.022 14.89H173.732L178.682 25.96L175.442 28.06ZM190.717 14.89L191.047 17.2L190.987 17.02C191.507 16.14 192.157 15.46 192.937 14.98C193.717 14.48 194.657 14.23 195.757 14.23C196.477 14.23 197.107 14.33 197.647 14.53C198.207 14.73 198.677 15.03 199.057 15.43C199.437 15.81 199.697 16.31 199.837 16.93L199.687 16.96C200.247 16.14 200.917 15.48 201.697 14.98C202.497 14.48 203.327 14.23 204.187 14.23C205.487 14.23 206.517 14.6 207.277 15.34C208.057 16.06 208.457 17 208.477 18.16V28H204.307V19.9C204.287 19.32 204.197 18.85 204.037 18.49C203.877 18.11 203.507 17.9 202.927 17.86C202.247 17.86 201.667 18.1 201.187 18.58C200.727 19.04 200.377 19.64 200.137 20.38C199.917 21.1 199.807 21.85 199.807 22.63V28H195.607V19.9C195.587 19.32 195.477 18.85 195.277 18.49C195.097 18.11 194.717 17.9 194.137 17.86C193.477 17.86 192.917 18.1 192.457 18.58C192.017 19.04 191.677 19.63 191.437 20.35C191.217 21.07 191.107 21.81 191.107 22.57V28H186.907V14.89H190.717Z" fill="white"/>
</svg>
